<svg width="300" height="300" viewBox="0 0 300 300" fill="none" xmlns="http://www.w3.org/2000/svg">
  <!-- Base mountain pattern -->
  <g opacity="0.6">
    <!-- Main mountain peaks -->
    <path d="M0 200 L50 100 L100 150 L150 80 L200 130 L250 60 L300 110 L300 250 L0 250 Z" 
          fill="url(#mountainFill)" stroke="url(#mountainStroke)" stroke-width="2"/>
    
    <!-- Secondary layer -->
    <path d="M0 220 L40 130 L80 170 L120 110 L160 150 L200 90 L240 130 L280 80 L300 120 L300 250 L0 250 Z" 
          fill="url(#mountainFill2)" opacity="0.7"/>
    
    <!-- Tertiary layer -->
    <path d="M0 240 L30 160 L60 190 L90 140 L120 170 L150 120 L180 150 L210 110 L240 140 L270 100 L300 130 L300 250 L0 250 Z" 
          fill="url(#mountainFill3)" opacity="0.5"/>
  </g>
  
  <!-- Camouflage pattern overlay -->
  <g opacity="0.3">
    <!-- Organic camo shapes -->
    <path d="M20 50 Q40 30 60 50 Q80 70 100 50 Q120 30 140 50 Q160 70 180 50 Q200 30 220 50 Q240 70 260 50 Q280 30 300 50 L300 100 Q280 80 260 100 Q240 120 220 100 Q200 80 180 100 Q160 120 140 100 Q120 80 100 100 Q80 120 60 100 Q40 80 20 100 L0 100 L0 50 Z" 
          fill="#27ae60" opacity="0.4"/>
    
    <path d="M0 100 Q20 80 40 100 Q60 120 80 100 Q100 80 120 100 Q140 120 160 100 Q180 80 200 100 Q220 120 240 100 Q260 80 280 100 Q290 120 300 100 L300 150 Q290 130 280 150 Q260 170 240 150 Q220 130 200 150 Q180 170 160 150 Q140 130 120 150 Q100 170 80 150 Q60 130 40 150 Q20 170 0 150 Z" 
          fill="#34495e" opacity="0.5"/>
    
    <path d="M10 150 Q30 130 50 150 Q70 170 90 150 Q110 130 130 150 Q150 170 170 150 Q190 130 210 150 Q230 170 250 150 Q270 130 290 150 L300 200 Q280 180 260 200 Q240 220 220 200 Q200 180 180 200 Q160 220 140 200 Q120 180 100 200 Q80 220 60 200 Q40 180 20 200 Q10 220 0 200 Z" 
          fill="#2c3e50" opacity="0.6"/>
  </g>
  
  <!-- Texture dots and details -->
  <g opacity="0.4">
    <circle cx="40" cy="80" r="3" fill="#2ecc71"/>
    <circle cx="80" cy="120" r="2" fill="#16a085"/>
    <circle cx="120" cy="60" r="2.5" fill="#27ae60"/>
    <circle cx="160" cy="100" r="2" fill="#2c3e50"/>
    <circle cx="200" cy="140" r="3" fill="#34495e"/>
    <circle cx="240" cy="70" r="2" fill="#2ecc71"/>
    <circle cx="280" cy="110" r="2.5" fill="#16a085"/>
    
    <!-- Small mountain details -->
    <path d="M45 85 L50 75 L55 85 Z" fill="#1e8449"/>
    <path d="M125 65 L130 55 L135 65 Z" fill="#1e8449"/>
    <path d="M205 145 L210 135 L215 145 Z" fill="#1e8449"/>
    <path d="M245 75 L250 65 L255 75 Z" fill="#1e8449"/>
  </g>
  
  <!-- SM logo integration -->
  <g transform="translate(120, 180)" opacity="0.8">
    <!-- S -->
    <path d="M0 5 C0 2 2 0 5 0 L15 0 C18 0 20 2 20 5 C20 8 18 10 15 10 L5 10 C2 10 0 12 0 15 C0 18 2 20 5 20 L15 20 C18 20 20 18 20 15" 
          stroke="rgba(255,255,255,0.8)" stroke-width="2" fill="none" stroke-linecap="round"/>
    
    <!-- M -->
    <path d="M30 20 L30 0 L40 15 L50 0 L50 20" 
          stroke="rgba(255,255,255,0.8)" stroke-width="2" fill="none" stroke-linecap="round" stroke-linejoin="round"/>
  </g>
  
  <!-- Gradient definitions -->
  <defs>
    <linearGradient id="mountainFill" x1="0%" y1="0%" x2="100%" y2="100%">
      <stop offset="0%" style="stop-color:#2c3e50;stop-opacity:0.8" />
      <stop offset="50%" style="stop-color:#34495e;stop-opacity:0.6" />
      <stop offset="100%" style="stop-color:#27ae60;stop-opacity:0.4" />
    </linearGradient>
    
    <linearGradient id="mountainFill2" x1="0%" y1="0%" x2="100%" y2="100%">
      <stop offset="0%" style="stop-color:#34495e;stop-opacity:0.7" />
      <stop offset="100%" style="stop-color:#2ecc71;stop-opacity:0.5" />
    </linearGradient>
    
    <linearGradient id="mountainFill3" x1="0%" y1="0%" x2="100%" y2="100%">
      <stop offset="0%" style="stop-color:#27ae60;stop-opacity:0.6" />
      <stop offset="100%" style="stop-color:#16a085;stop-opacity:0.4" />
    </linearGradient>
    
    <linearGradient id="mountainStroke" x1="0%" y1="0%" x2="100%" y2="0%">
      <stop offset="0%" style="stop-color:#2c3e50;stop-opacity:0.8" />
      <stop offset="50%" style="stop-color:#27ae60;stop-opacity:0.6" />
      <stop offset="100%" style="stop-color:#2ecc71;stop-opacity:0.4" />
    </linearGradient>
    
    <!-- Noise pattern for texture -->
    <pattern id="noisePattern" patternUnits="userSpaceOnUse" width="4" height="4">
      <rect width="4" height="4" fill="rgba(0,0,0,0.05)"/>
      <circle cx="2" cy="2" r="0.5" fill="rgba(255,255,255,0.1)"/>
    </pattern>
    
    <!-- Camo pattern -->
    <pattern id="camoDetail" patternUnits="userSpaceOnUse" width="15" height="15">
      <rect width="15" height="15" fill="#2c3e50"/>
      <path d="M0,7 Q3,3 7,7 T15,7 L15,15 L0,15 Z" fill="#27ae60" opacity="0.6"/>
      <path d="M3,0 Q7,3 11,0 T19,0 L19,8 L3,8 Z" fill="#34495e" opacity="0.7"/>
      <circle cx="5" cy="10" r="1.5" fill="#2ecc71" opacity="0.5"/>
    </pattern>
  </defs>
  
  <!-- Apply texture patterns -->
  <rect width="300" height="300" fill="url(#noisePattern)" opacity="0.1"/>
  <rect width="300" height="300" fill="url(#camoDetail)" opacity="0.05"/>
  
  <!-- Highlight strokes -->
  <g opacity="0.3">
    <path d="M50 100 L100 150 L150 80 L200 130 L250 60" 
          stroke="rgba(255,255,255,0.4)" stroke-width="1" fill="none"/>
    <path d="M40 130 L80 170 L120 110 L160 150 L200 90 L240 130 L280 80" 
          stroke="rgba(255,255,255,0.2)" stroke-width="1" fill="none"/>
  </g>
  
  <!-- Shadow effects -->
  <g opacity="0.2">
    <path d="M0 250 L50 200 L100 230 L150 180 L200 210 L250 160 L300 190 L300 250 Z" 
          fill="rgba(0,0,0,0.3)"/>
  </g>
</svg>
